<?xml version="1.0" encoding="utf-8"?>
<!-- Generator: Adobe Illustrator 20.1.0, SVG Export Plug-In . SVG Version: 6.00 Build 0)  -->
<svg version="1.1" id="Layer_1" xmlns="http://www.w3.org/2000/svg" xmlns:xlink="http://www.w3.org/1999/xlink" x="0px" y="0px"
	 viewBox="0 0 199 199" style="enable-background:new 0 0 199 199;" xml:space="preserve">
<style type="text/css">
	.st0{fill:#F9B715;}
	.st1{fill:#023F87;}
	.st2{fill:#FCB813;}
</style>
<rect class="st0" width="199" height="199"/>
<g>
	<rect x="73.3" y="98.6" class="st1" width="52.2" height="51.2"/>
	<polygon class="st2" points="99.9,133.3 73.3,111.6 73.3,116.9 97.1,136.4 	"/>
	<polygon class="st2" points="99.5,117.5 125.5,139 125.5,133.5 102.3,114.4 	"/>
	
		<rect x="97.5" y="110.4" transform="matrix(0.6348 -0.7727 0.7727 0.6348 -60.3899 122.766)" class="st2" width="4.3" height="29.7"/>
</g>
<g>
	<g>
		<path class="st1" d="M39.6,57.3c0-0.2,0-0.3,0.1-0.4c0.1-0.1,0.2-0.1,0.3-0.1h4.4c0.8,0,1.5,0.1,2.1,0.4c0.6,0.2,1.1,0.6,1.5,1
			c0.4,0.4,0.7,0.9,0.8,1.4c0.2,0.5,0.3,1.1,0.3,1.6s-0.1,1.1-0.3,1.6c-0.2,0.5-0.5,1-0.8,1.4c-0.4,0.4-0.9,0.7-1.5,1
			c-0.6,0.2-1.3,0.4-2.1,0.4h-2.8v4.1c0,0.2,0,0.3-0.1,0.4c-0.1,0.1-0.2,0.1-0.3,0.1h-1.1c-0.2,0-0.3,0-0.3-0.1
			c-0.1-0.1-0.1-0.2-0.1-0.4V57.3z M41.6,58.6v5.2h2.8c0.8,0,1.4-0.2,1.9-0.7c0.5-0.5,0.7-1.1,0.7-1.9s-0.2-1.4-0.7-1.9
			c-0.5-0.5-1.1-0.7-1.9-0.7H41.6z"/>
		<path class="st1" d="M50.6,57.3c0-0.2,0-0.3,0.1-0.4c0.1-0.1,0.2-0.1,0.3-0.1h1.2c0.2,0,0.3,0,0.3,0.1c0.1,0.1,0.1,0.2,0.1,0.4
			v12.4c0,0.2,0,0.3-0.1,0.4c-0.1,0.1-0.2,0.1-0.3,0.1H51c-0.2,0-0.3,0-0.3-0.1c-0.1-0.1-0.1-0.2-0.1-0.4V57.3z"/>
		<path class="st1" d="M55.2,57.3c0-0.2,0-0.3,0.1-0.4c0.1-0.1,0.2-0.1,0.3-0.1H60c0.8,0,1.5,0.1,2.1,0.3c0.6,0.2,1.1,0.5,1.5,0.9
			c0.4,0.4,0.7,0.8,0.8,1.3c0.2,0.5,0.3,1,0.3,1.6c0,0.5-0.1,0.9-0.2,1.3c-0.1,0.4-0.3,0.8-0.6,1.2c-0.3,0.4-0.6,0.7-1,0.9
			c-0.4,0.3-0.9,0.5-1.4,0.6l3.5,4.8c0.1,0.1,0.1,0.2,0.1,0.3c0,0.1-0.1,0.1-0.2,0.1h-1.5c-0.2,0-0.3,0-0.4-0.1
			c-0.1-0.1-0.2-0.1-0.3-0.3l-3.4-4.7h-2.1v4.6c0,0.2,0,0.3-0.1,0.4c-0.1,0.1-0.2,0.1-0.3,0.1h-1.1c-0.2,0-0.3,0-0.3-0.1
			c-0.1-0.1-0.1-0.2-0.1-0.4V57.3z M57.2,58.6v4.8H60c0.8,0,1.4-0.2,1.9-0.7c0.5-0.4,0.7-1,0.7-1.8c0-0.7-0.2-1.3-0.7-1.8
			c-0.5-0.4-1.1-0.7-1.9-0.7H57.2z"/>
		<path class="st1" d="M75,66.8h-6l-1.2,3c-0.1,0.2-0.1,0.3-0.2,0.4c-0.1,0.1-0.2,0.1-0.3,0.1H66c-0.1,0-0.2,0-0.3-0.1
			c-0.1-0.1-0.1-0.2,0-0.3l5.2-12.5c0.1-0.2,0.1-0.3,0.2-0.4c0.1-0.1,0.2-0.1,0.3-0.1h1.3c0.1,0,0.2,0,0.3,0.1
			c0.1,0.1,0.1,0.2,0.2,0.4l5.2,12.5c0.1,0.1,0.1,0.2,0,0.3c-0.1,0.1-0.1,0.1-0.3,0.1h-1.3c-0.1,0-0.2,0-0.3-0.1
			c-0.1-0.1-0.1-0.2-0.2-0.4L75,66.8z M69.7,65h4.6L72,59.3L69.7,65z"/>
		<path class="st1" d="M86.5,56.8c0.2,0,0.3,0,0.4,0.1C87,57,87,57.1,87,57.3v0.9c0,0.2,0,0.3-0.1,0.4c-0.1,0.1-0.2,0.1-0.4,0.1h-5
			v3.8h3.4c0.2,0,0.3,0,0.4,0.1c0.1,0.1,0.1,0.2,0.1,0.4v0.9c0,0.2,0,0.3-0.1,0.4c-0.1,0.1-0.2,0.1-0.4,0.1h-3.4v4.1h5
			c0.2,0,0.3,0,0.4,0.1c0.1,0.1,0.1,0.2,0.1,0.4v0.9c0,0.2,0,0.3-0.1,0.4c-0.1,0.1-0.2,0.1-0.4,0.1h-6.6c-0.2,0-0.3,0-0.3-0.1
			c-0.1-0.1-0.1-0.2-0.1-0.4V57.3c0-0.2,0-0.3,0.1-0.4c0.1-0.1,0.2-0.1,0.3-0.1H86.5z"/>
		<path class="st1" d="M98.4,65.6c0,1.5-0.4,2.7-1.3,3.5c-0.9,0.8-2.1,1.3-3.6,1.3c-1.5,0-2.7-0.4-3.6-1.3c-0.9-0.8-1.3-2-1.3-3.5
			v-8.3c0-0.2,0-0.3,0.1-0.4c0.1-0.1,0.2-0.1,0.3-0.1h1.2c0.2,0,0.3,0,0.3,0.1c0.1,0.1,0.1,0.2,0.1,0.4v8.3c0,1,0.2,1.7,0.7,2.2
			c0.5,0.5,1.2,0.7,2.2,0.7c1,0,1.7-0.2,2.2-0.7c0.5-0.5,0.7-1.2,0.7-2.2v-8.3c0-0.2,0-0.3,0.1-0.4c0.1-0.1,0.2-0.1,0.3-0.1h1.2
			c0.2,0,0.3,0,0.3,0.1c0.1,0.1,0.1,0.2,0.1,0.4V65.6z"/>
		<path class="st1" d="M104,68.5c0.7,0,1.3-0.2,1.7-0.5c0.4-0.3,0.6-0.8,0.6-1.3c0-0.5-0.2-0.9-0.5-1.2c-0.3-0.3-0.7-0.6-1.1-0.9
			c-0.4-0.3-0.9-0.5-1.5-0.8c-0.5-0.2-1-0.5-1.5-0.9c-0.4-0.3-0.8-0.7-1.1-1.2c-0.3-0.5-0.4-1.1-0.4-1.8c0-0.6,0.1-1.1,0.3-1.6
			c0.2-0.4,0.5-0.8,0.9-1c0.4-0.3,0.8-0.5,1.2-0.6c0.5-0.1,0.9-0.2,1.4-0.2c0.8,0,1.5,0.1,2.1,0.4c0.6,0.3,1.1,0.6,1.5,1
			c0.1,0.1,0.2,0.2,0.2,0.2c0,0.1-0.1,0.2-0.2,0.3l-0.5,0.7c-0.1,0.1-0.2,0.2-0.2,0.2c-0.1,0-0.2,0-0.3-0.1
			c-0.5-0.3-0.9-0.5-1.3-0.7c-0.4-0.2-0.8-0.3-1.3-0.3c-0.5,0-0.9,0.1-1.2,0.3c-0.3,0.2-0.5,0.6-0.5,1c0,0.4,0.2,0.8,0.4,1.1
			c0.3,0.3,0.7,0.6,1.1,0.8c0.4,0.3,0.9,0.5,1.5,0.8c0.5,0.3,1,0.6,1.5,0.9c0.4,0.4,0.8,0.8,1.1,1.3c0.3,0.5,0.4,1.1,0.4,1.9
			c0,0.7-0.1,1.3-0.4,1.7c-0.2,0.5-0.6,0.9-1,1.2c-0.4,0.3-0.9,0.5-1.4,0.7c-0.5,0.1-1,0.2-1.6,0.2c-0.5,0-0.9,0-1.3-0.1
			c-0.4-0.1-0.8-0.2-1.2-0.4c-0.4-0.2-0.7-0.3-1-0.6c-0.3-0.2-0.6-0.4-0.8-0.7c-0.1-0.1-0.2-0.2-0.2-0.3c0-0.1,0.1-0.2,0.2-0.3
			l0.5-0.7c0.1-0.2,0.2-0.2,0.3-0.2c0.1,0,0.2,0,0.3,0.1c0.3,0.2,0.5,0.4,0.8,0.5c0.3,0.2,0.5,0.3,0.8,0.4c0.3,0.1,0.5,0.2,0.8,0.3
			C103.4,68.5,103.7,68.5,104,68.5z"/>
		<path class="st1" d="M118.5,56.8c0.8,0,1.5,0.1,2,0.3c0.6,0.2,1,0.4,1.4,0.8c0.4,0.3,0.6,0.7,0.8,1.1c0.2,0.4,0.2,0.9,0.2,1.3
			c0,0.7-0.2,1.2-0.5,1.7c-0.3,0.4-0.7,0.8-1.2,1.1c1.7,0.7,2.5,1.9,2.5,3.5c0,0.5-0.1,1-0.2,1.4c-0.2,0.4-0.4,0.8-0.8,1.2
			c-0.4,0.3-0.8,0.6-1.4,0.8c-0.6,0.2-1.2,0.3-2,0.3h-4.8c-0.2,0-0.3,0-0.3-0.1c-0.1-0.1-0.1-0.2-0.1-0.4V57.3c0-0.2,0-0.3,0.1-0.4
			c0-0.1,0.2-0.1,0.3-0.1H118.5z M116.1,62.4h2.2c0.8,0,1.4-0.2,1.9-0.5c0.4-0.3,0.7-0.8,0.7-1.5c0-0.7-0.2-1.1-0.6-1.4
			c-0.4-0.3-1-0.4-1.8-0.4h-2.4V62.4z M116.1,68.4h3c0.8,0,1.4-0.2,1.9-0.5c0.5-0.3,0.7-0.9,0.7-1.6c0-0.7-0.2-1.3-0.7-1.7
			c-0.5-0.4-1.1-0.6-1.9-0.6h-3V68.4z"/>
		<path class="st1" d="M133.4,66.8h-6l-1.2,3c-0.1,0.2-0.1,0.3-0.2,0.4c-0.1,0.1-0.2,0.1-0.3,0.1h-1.3c-0.1,0-0.2,0-0.3-0.1
			c-0.1-0.1-0.1-0.2,0-0.3l5.2-12.5c0.1-0.2,0.1-0.3,0.2-0.4s0.2-0.1,0.3-0.1h1.3c0.1,0,0.2,0,0.3,0.1c0.1,0.1,0.1,0.2,0.2,0.4
			l5.2,12.5c0.1,0.1,0.1,0.2,0,0.3c-0.1,0.1-0.1,0.1-0.3,0.1h-1.3c-0.1,0-0.2,0-0.3-0.1c-0.1-0.1-0.1-0.2-0.2-0.4L133.4,66.8z
			 M128.1,65h4.6l-2.3-5.6L128.1,65z"/>
		<path class="st1" d="M139.8,60.5v9.2c0,0.2,0,0.3-0.1,0.4c-0.1,0.1-0.2,0.1-0.3,0.1h-1.1c-0.2,0-0.3,0-0.3-0.1
			c-0.1-0.1-0.1-0.2-0.1-0.4V57.3c0-0.2,0-0.3,0.1-0.4c0.1-0.1,0.2-0.1,0.3-0.1h1.2c0.1,0,0.2,0,0.3,0.1c0.1,0.1,0.2,0.2,0.2,0.3
			l5.5,9.3v-9.2c0-0.2,0-0.3,0.1-0.4c0.1-0.1,0.2-0.1,0.3-0.1h1.1c0.2,0,0.3,0,0.3,0.1c0.1,0.1,0.1,0.2,0.1,0.4v12.4
			c0,0.2,0,0.3-0.1,0.4c-0.1,0.1-0.2,0.1-0.3,0.1h-1.1c-0.1,0-0.3,0-0.3-0.1c-0.1-0.1-0.2-0.2-0.2-0.3L139.8,60.5z"/>
		<path class="st1" d="M150,57.3c0-0.2,0-0.3,0.1-0.4c0.1-0.1,0.2-0.1,0.3-0.1h1.2c0.2,0,0.3,0,0.3,0.1c0.1,0.1,0.1,0.2,0.1,0.4v5.2
			l4.5-5.4c0.1-0.1,0.2-0.2,0.3-0.3c0.1-0.1,0.2-0.1,0.3-0.1h1.6c0.1,0,0.2,0,0.2,0.1c0,0.1,0,0.2-0.1,0.3l-4.4,5.1l5.4,7.3
			c0.1,0.1,0.1,0.2,0.1,0.3c0,0.1-0.1,0.1-0.2,0.1h-1.6c-0.2,0-0.3,0-0.4-0.1c-0.1-0.1-0.2-0.1-0.3-0.3l-4.3-6l-1.1,1.3v4.5
			c0,0.2,0,0.3-0.1,0.4c-0.1,0.1-0.2,0.1-0.3,0.1h-1.2c-0.2,0-0.3,0-0.3-0.1c-0.1-0.1-0.1-0.2-0.1-0.4V57.3z"/>
	</g>
</g>
</svg>
